<?xml version="1.0" encoding="iso-8859-1"?>
<!-- Generator: Adobe Illustrator 19.0.0, SVG Export Plug-In . SVG Version: 6.00 Build 0)  -->
<svg version="1.1" id="Capa_1" xmlns="http://www.w3.org/2000/svg" xmlns:xlink="http://www.w3.org/1999/xlink" x="0px" y="0px"
	 viewBox="0 0 489.317 489.317" style="enable-background:new 0 0 489.317 489.317;" xml:space="preserve" fill="#ffffff">
<g>
	<g>
		<path d="M341.764,375.679c-8.3-8.3-20.8-8.3-29.1,0c-8.3,8.3-8.3,20.8,0,29.1l38.5,38.5c13.4,11.6,25,4.2,29.1,0
			c8.3-8.3,8.3-20.8,0-29.1L341.764,375.679z"/>
		<path d="M406.264,312.179c-8.3-8.3-20.8-8.3-29.1,0s-8.3,20.8,0,29.1l38.5,38.5c12.7,11.9,25,4.2,29.1,0c8.3-8.3,8.3-20.8,0-29.1
			L406.264,312.179z"/>
		<path d="M486.364,239.379c-62.2-110.3-176.9-92.6-187.3-90.5l-77-77c-87.9-86.2-193.5-71.8-202.8-69.7c-9.4,1-16.6,8.3-17.7,17.7
			c-7.3,74.9,17.7,147.7,70.7,200.8l77,77c-10.4,58.3,8.3,117.6,49.9,159.2c11.4,11.4,25,20.8,39.5,29.1
			c24.5,13.1,38.7-15.6,27-30.2c-30.2-54.1-19.8-122.8,23.9-166.5c27-27,62.4-41.6,99.9-41.6c25,0,48.9,7.3,69.7,18.7
			C469.564,274.679,497.664,264.079,486.364,239.379z M261.664,260.179c-38.5,38.5-56.2,90.5-53.1,141.5
			c-18.7-31.2-25-68.7-16.6-106.1c2.1-6.2,0-13.5-5.2-18.7l-85.3-85.3c-40.6-40.6-62.4-94.7-60.3-150.8
			c57.2-1,111.3,19.8,150.8,59.3l85.3,85.3c4.2,5.2,11.4,7.3,18.7,5.2c10.4-3.1,56.5-13.4,106.1,16.6
			C349.164,203.379,295.964,225.879,261.664,260.179z"/>
		<circle cx="191.364" cy="189.979" r="21.3"/>
		<circle cx="117.564" cy="116.079" r="21.3"/>
	</g>
</g>
<g>
</g>
<g>
</g>
<g>
</g>
<g>
</g>
<g>
</g>
<g>
</g>
<g>
</g>
<g>
</g>
<g>
</g>
<g>
</g>
<g>
</g>
<g>
</g>
<g>
</g>
<g>
</g>
<g>
</g>
</svg>
