<svg xmlns="http://www.w3.org/2000/svg" xmlns:xlink="http://www.w3.org/1999/xlink" version="1.1" style="" xml:space="preserve" fill="#ffffff" width="241.84393064858386" height="245.2890200941382"><rect id="backgroundrect" width="100%" height="100%" x="0" y="0" fill="none" stroke="none" class="" style=""/>
















<g class="currentLayer" style=""><title>Layer 1</title><g id="svg_1" class="">
	<g id="svg_2">
		<path d="M167.00518285669528,184.32209739304778 c-3.9956616640090945,-3.9956616640090945 -10.013224411010743,-3.9956616640090945 -14.008886075019838,0 c-3.9956616640090945,3.9956616640090945 -3.9956616640090945,10.013224411010743 0,14.008886075019838 l18.534093260765076,18.534093260765076 c6.450827264785767,5.584298229217529 12.035125494003296,2.021901082992554 14.008886075019838,0 c3.9956616640090945,-3.9956616640090945 3.9956616640090945,-10.013224411010743 0,-14.008886075019838 L167.00518285669528,184.32209739304778 z" id="svg_3"/>
		<path d="M198.0558066312238,153.7528786382794 c-3.9956616640090945,-3.9956616640090945 -10.013224411010743,-3.9956616640090945 -14.008886075019838,0 s-3.9956616640090945,10.013224411010743 0,14.008886075019838 l18.534093260765076,18.534093260765076 c6.113843750953674,5.728719735145569 12.035125494003296,2.021901082992554 14.008886075019838,0 c3.9956616640090945,-3.9956616640090945 3.9956616640090945,-10.013224411010743 0,-14.008886075019838 L198.0558066312238,153.7528786382794 z" id="svg_4"/>
		<path d="M236.61634871401031,118.7065931997418 c-29.943392229080203,-53.09897367954254 -85.16054799556733,-44.5781048297882 -90.1671602010727,-43.56715428829193 l-37.06818652153015,-37.06818652153015 c-42.315501236915594,-41.49711270332337 -93.15187132358551,-34.56488041877746 -97.62893800735475,-33.55392987728119 c-4.52520718574524,0.48140501976013184 -7.991323328018189,3.9956616640090945 -8.520868849754333,8.520868849754333 c-3.5142566442489622,36.05723598003388 8.520868849754333,71.10352141857146 34.035334897041324,96.66612796783448 l37.06818652153015,37.06818652153015 c-5.0066122055053714,28.065912652015683 3.9956616640090945,56.6132303237915 24.022110486030577,76.63967914581298 c5.488017225265503,5.488017225265503 12.035125494003296,10.013224411010743 19.015498280525208,14.008886075019838 c11.79442298412323,6.306405758857727 18.630374264717105,-7.509918308258056 12.99793553352356,-14.53843159675598 c-14.53843159675598,-26.044011569023134 -9.531819391250611,-59.11653642654419 11.50557997226715,-80.15393579006195 c12.99793553352356,-12.99793553352356 30.039673233032225,-20.026448822021486 48.092361474037176,-20.026448822021486 c12.035125494003296,0 23.540705466270445,3.5142566442489622 33.55392987728119,9.002273869514465 C228.52874438204014,135.70019039727447 242.05622543729982,130.59729718781705 236.61634871401031,118.7065931997418 zM128.4446407739087,128.71981761075256 c-18.534093260765076,18.534093260765076 -27.054962110519412,43.56715428829193 -25.562606549263002,68.11881029605865 c-9.002273869514465,-15.019836616516113 -12.035125494003296,-33.07252485752106 -7.991323328018189,-51.07707259654998 c1.010950541496277,-2.9847111225128176 0,-6.49896776676178 -2.5033061027526857,-9.002273869514465 l-41.06384818553924,-41.06384818553924 c-19.545043802261354,-19.545043802261354 -30.039673233032225,-45.58905537128449 -29.028722691535947,-72.59587697982789 c27.536367130279544,-0.48140501976013184 53.58037869930267,9.531819391250611 72.59587697982789,28.547317671775815 l41.06384818553924,41.06384818553924 c2.021901082992554,2.5033061027526857 5.488017225265503,3.5142566442489622 9.002273869514465,2.5033061027526857 c5.0066122055053714,-1.4923555612564088 27.19938361644745,-6.450827264785767 51.07707259654998,7.991323328018189 C170.56758000292024,101.37601248837706 144.95683295168124,112.20762543298002 128.4446407739087,128.71981761075256 z" id="svg_5"/>
		<circle cx="94.60186576843262" cy="94.9251823425293" r="10.253926277160645" id="svg_6"/>
		<circle cx="59.07417869567871" cy="59.34934616088867" r="10.253926277160645" id="svg_7"/>
	</g>
</g><g id="svg_8" class="">
</g><g id="svg_9" class="">
</g><g id="svg_10" class="">
</g><g id="svg_11" class="">
</g><g id="svg_12" class="">
</g><g id="svg_13" class="">
</g><g id="svg_14" class="">
</g><g id="svg_15" class="">
</g><g id="svg_16" class="">
</g><g id="svg_17" class="">
</g><g id="svg_18" class="">
</g><g id="svg_19" class="">
</g><g id="svg_20" class="">
</g><g id="svg_21" class="">
</g><g id="svg_22" class="">
</g></g></svg>